# xmcd
#
# Track frame offsets:
#	150
#	13101
#	31041
#	44852
#	57180
#	74014
#	88843
#	106140
#	121617
#	139589
#	156732
#	169362
#	182800
#	199282
#	215546
#	229235
#	247044
#	268422
#	281515
#	297531
#
# Disc length: 4166 seconds
# Revision: 3
# Processed by: cddbd v1.5.2PL0 Copyright (c) Steve Scherf et al.
# Submitted via: dBpowerAMP V12.0
#
DISCID=43104414
DTITLE=Various Artist - Soul - I just wanna make love to you [CD 1-3)
DYEAR=2002
DGENRE=Soul
TTITLE0=Fontella Bass - Rescue Me
TTITLE1=The Commitments - Mustang Sally
TTITLE2=Etta James - I Just Wanna Make Love to You
TTITLE3=James Brown - It's a Man's Man's Man's World
TTITLE4=Cameo - She's Strange
TTITLE5=Shakatak - Down on the Street
TTITLE6=Womack and Womack - Teardrops
TTITLE7=Gwen Guthrie - Ain't Nothing Going on But the Rent
TTITLE8=The Gap Band - Burn Rubber (Why You Wanna Hurt Me)
TTITLE9=DeBarge - Rhythm of the Night
TTITLE10=The Miracles - Love Machine, Pt. 1
TTITLE11=Gloria Gaynor - Never Can Say Goodbye
TTITLE12=Ce Ce Peniston - We Got a Love Thang
TTITLE13=Thelma Houston - Don't Leave Me This Way
TTITLE14=Kool and the Gang - Jungle Boogie
TTITLE15=Roy Ayers - Everybody Loves the Sunshine
TTITLE16=Ohio Players - Love Rollercoaster
TTITLE17=The Four Tops - Reach Out (I'll Be There)
TTITLE18=Commodores - Brick House
TTITLE19=Edwin Starr - War
EXTD=
EXTT0=
EXTT1=
EXTT2=
EXTT3=
EXTT4=
EXTT5=
EXTT6=
EXTT7=
EXTT8=
EXTT9=
EXTT10=
EXTT11=
EXTT12=
EXTT13=
EXTT14=
EXTT15=
EXTT16=
EXTT17=
EXTT18=
EXTT19=
PLAYORDER=
